<?xml version="1.0" encoding="UTF-8"?>
<svg xmlns="http://www.w3.org/2000/svg" xmlns:xlink="http://www.w3.org/1999/xlink" width="24" height="24" viewBox="0 0 24 24">
  <defs>
    <clipPath id="clip-path">
      <rect id="Rectangle_11432" data-name="Rectangle 11432" width="24" height="24" fill="#1f7ac5"></rect>
    </clipPath>
  </defs>
  <g id="_2" data-name="2" clip-path="url(#clip-path)">
    <path id="Path_29454" data-name="Path 29454" d="M13.017,2.105a1.312,1.312,0,0,0-1.034,0L2.8,6.042a1.312,1.312,0,0,0,0,2.415L6.27,9.941A1.311,1.311,0,0,1,6.733,9.6l5.249-2.249a1.312,1.312,0,1,1,1.034,2.412L9.438,11.3l2.546,1.091a1.312,1.312,0,0,0,1.033,0L22.2,8.456a1.312,1.312,0,0,0,0-2.412L13.017,2.107Zm-9.3,9.6,2.218.949V18.04a11.771,11.771,0,0,0-1.378-.228,1.312,1.312,0,0,1-1.168-1.168,14.587,14.587,0,0,1,.328-4.937Zm7.861,9.417a11.845,11.845,0,0,0-3.018-2.15V13.783l2.386,1.024a3.937,3.937,0,0,0,3.1,0l7.228-3.1a14.47,14.47,0,0,1,.328,4.937,1.312,1.312,0,0,1-1.168,1.168,11.769,11.769,0,0,0-7.021,3.312,1.312,1.312,0,0,1-1.837,0ZM7.25,23a1.312,1.312,0,0,0,1.312-1.312v-2.71a11.726,11.726,0,0,0-2.625-.934v3.644A1.312,1.312,0,0,0,7.25,23Z" transform="translate(-0.498 -0.131)" fill="#1f7ac5"></path>
  </g>
</svg>
