<?xml version="1.0" encoding="UTF-8"?>
<svg xmlns="http://www.w3.org/2000/svg" id="Group_391" data-name="Group 391" width="42" height="42" viewBox="0 0 42 42">
  <rect id="Rectangle_11423" data-name="Rectangle 11423" width="42" height="42" rx="8" fill="#ea412c"></rect>
  <g id="Icon_feather-youtube" data-name="Icon feather-youtube" transform="translate(7.338 11.531)">
    <path id="Path_29429" data-name="Path 29429" d="M28.209,9A3.447,3.447,0,0,0,25.8,6.521C23.671,6,15.14,6,15.14,6S6.609,6,4.476,6.57A3.447,3.447,0,0,0,2.07,9.05a35.96,35.96,0,0,0-.57,6.56,35.96,35.96,0,0,0,.57,6.609A3.447,3.447,0,0,0,4.476,24.6c2.133.57,10.664.57,10.664.57s8.531,0,10.664-.57a3.447,3.447,0,0,0,2.406-2.48,35.959,35.959,0,0,0,.57-6.51A35.959,35.959,0,0,0,28.209,9Z" transform="translate(-1.499 -6)" fill="#fff"></path>
    <path id="Path_29430" data-name="Path 29430" d="M14.625,20.829l7.13-4.055-7.13-4.055Z" transform="translate(-3.774 -7.165)" fill="#ea412c"></path>
  </g>
</svg>
