<?xml version="1.0" encoding="UTF-8"?>
<svg xmlns="http://www.w3.org/2000/svg" id="Group_392" data-name="Group 392" width="42" height="42" viewBox="0 0 42 42">
  <rect id="Rectangle_11422" data-name="Rectangle 11422" width="42" height="42" rx="8" fill="#fe4e65"></rect>
  <g id="Icon_feather-instagram" data-name="Icon feather-instagram" transform="translate(10.937 10.937)">
    <path id="Path_29426" data-name="Path 29426" d="M8.058,3H18.174a5.058,5.058,0,0,1,5.058,5.058V18.174a5.058,5.058,0,0,1-5.058,5.058H8.058A5.058,5.058,0,0,1,3,18.174V8.058A5.058,5.058,0,0,1,8.058,3Z" transform="translate(-3 -3)" fill="#fff"></path>
    <path id="Path_29427" data-name="Path 29427" d="M20.114,15.388A4.046,4.046,0,1,1,16.7,11.979a4.046,4.046,0,0,1,3.409,3.409Z" transform="translate(-5.952 -5.909)" fill="#fe4e65"></path>
    <path id="Path_29428" data-name="Path 29428" d="M26.25,9.75h0" transform="translate(-10.57 -5.198)" fill="#fe4e65" stroke="#fe4e65" stroke-linecap="round" stroke-linejoin="round" stroke-width="3"></path>
  </g>
</svg>
