<?xml version="1.0" encoding="UTF-8"?>
<svg xmlns="http://www.w3.org/2000/svg" xmlns:xlink="http://www.w3.org/1999/xlink" width="24" height="24" viewBox="0 0 24 24">
  <defs>
    <clipPath id="clip-path">
      <rect id="Rectangle_91" data-name="Rectangle 91" width="24" height="24" transform="translate(3947 10337)" fill="#c4c4c4"></rect>
    </clipPath>
  </defs>
  <g id="Mask_Group_16" data-name="Mask Group 16" transform="translate(-3947 -10337)" clip-path="url(#clip-path)">
    <g id="noun-links-5095196" transform="translate(3782.524 10231.854)">
      <path id="Path_49" data-name="Path 49" d="M173.989,122.093a6.766,6.766,0,0,0,2.667,1.084l-2.7,2.7A4.86,4.86,0,0,1,167.084,119l4.582-4.582a4.867,4.867,0,0,1,6.874,0,1.308,1.308,0,0,1,.24.342c.009.018.02.035.028.053a1.32,1.32,0,0,1,.1.374c0,.02,0,.039.006.059h0a1.321,1.321,0,0,1-.024.4c0,.006,0,.012-.005.019a1.32,1.32,0,0,1-2.223.631,2.21,2.21,0,0,0-1.976-.605h0a2.206,2.206,0,0,0-1.147.605l-2.073,2.074,0,0-2.507,2.507a2.211,2.211,0,0,0,0,3.123,2.263,2.263,0,0,0,3.124,0Zm11.878-13.676a4.859,4.859,0,0,0-6.873,0l-2.7,2.7a6.808,6.808,0,0,1,2.667,1.083l1.908-1.908a2.261,2.261,0,0,1,3.123,0,2.208,2.208,0,0,1,0,3.123l-.84.841,0,0L179.41,118a2.262,2.262,0,0,1-3.123,0,1.326,1.326,0,0,0-1.875,1.875,4.859,4.859,0,0,0,6.873,0l3.739-3.738,0,0,.84-.841a4.859,4.859,0,0,0,0-6.873Z" transform="translate(0 0)" fill="#c4c4c4"></path>
    </g>
  </g>
</svg>
