<?xml version="1.0" encoding="UTF-8"?>
<svg xmlns="http://www.w3.org/2000/svg" xmlns:xlink="http://www.w3.org/1999/xlink" width="24" height="24" viewBox="0 0 24 24">
  <defs>
    <clipPath id="clip-path">
      <rect id="Rectangle_80" data-name="Rectangle 80" width="24" height="24" fill="#c4c4c4"></rect>
    </clipPath>
  </defs>
  <g id="Mask_Group_9" data-name="Mask Group 9" clip-path="url(#clip-path)">
    <path id="institution" d="M21,9.9a.614.614,0,0,1,.612.612h3.319l-.7,1.242.7,1.242H21.612v1.012H20.388v-3.5A.614.614,0,0,1,21,9.9Zm6.543,12.842v10.12h4.584a.374.374,0,0,0,.373-.373V23.116a.374.374,0,0,0-.373-.373Zm1.769,2.3h1.418a.178.178,0,0,1,.177.177v1.418a.178.178,0,0,1-.177.177H29.312a.178.178,0,0,1-.177-.177V25.217A.178.178,0,0,1,29.312,25.04Zm0,3.753h1.418a.178.178,0,0,1,.177.177v1.418a.178.178,0,0,1-.177.177H29.312a.178.178,0,0,1-.177-.177V28.97A.178.178,0,0,1,29.312,28.792Zm-14.855,4.07V22.742H9.873a.374.374,0,0,0-.373.373v9.374a.374.374,0,0,0,.373.373ZM11.269,25.04h1.418a.178.178,0,0,1,.177.177v1.418a.178.178,0,0,1-.177.177H11.269a.178.178,0,0,1-.177-.177V25.217A.178.178,0,0,1,11.269,25.04Zm0,3.753h1.418a.178.178,0,0,1,.177.177v1.418a.178.178,0,0,1-.177.177H11.269a.178.178,0,0,1-.177-.177V28.97A.178.178,0,0,1,11.269,28.792ZM15.044,14.8H26.956a.763.763,0,0,1,0,1.526H15.044a.763.763,0,1,1,0-1.526ZM26.75,17.12V32.863H24.272V27.8a.4.4,0,0,0-.4-.4h-5.75a.4.4,0,0,0-.4.4v5.06H15.25V17.12ZM23.478,32.863V28.2H18.522v4.663ZM16.95,18.951a.178.178,0,0,0-.177.177v1.418a.178.178,0,0,0,.177.177h1.418a.178.178,0,0,0,.177-.177V19.128a.178.178,0,0,0-.177-.177Zm0,3.753a.178.178,0,0,0-.177.177V24.3a.178.178,0,0,0,.177.177h1.418a.178.178,0,0,0,.177-.177V22.881a.178.178,0,0,0-.177-.177Zm3.341-3.753a.178.178,0,0,0-.177.177v1.418a.178.178,0,0,0,.177.177h1.418a.178.178,0,0,0,.177-.177V19.128a.178.178,0,0,0-.177-.177Zm0,3.753a.178.178,0,0,0-.177.177V24.3a.178.178,0,0,0,.177.177h1.418a.178.178,0,0,0,.177-.177V22.881a.178.178,0,0,0-.177-.177Zm3.341-3.753a.178.178,0,0,0-.177.177v1.418a.178.178,0,0,0,.177.177H25.05a.178.178,0,0,0,.177-.177V19.128a.178.178,0,0,0-.177-.177Zm0,3.753a.178.178,0,0,0-.177.177V24.3a.178.178,0,0,0,.177.177H25.05a.178.178,0,0,0,.177-.177V22.881a.178.178,0,0,0-.177-.177Z" transform="translate(-8.5 -8.9)" fill="#c4c4c4" fill-rule="evenodd"></path>
  </g>
</svg>
